PathFileType	4	(X/Y/Z)	/Users/whiskymisky/masters/Sports2D_results/trial_4_Sports2D/trial_4_Sports2D_px_person00.trc
DataRate	CameraRate	NumFrames	NumMarkers	Units	OrigDataRate	OrigDataStartFrame	OrigNumFrames
50	50	10	22	m	50	274	1098
Frame#	Time	Hip			RHip			RKnee			RAnkle			RBigToe			RSmallToe			RHeel			LHip			LKnee			LAnkle			LBigToe			LSmallToe			LHeel			Neck			Head			Nose			RShoulder			RElbow			RWrist			LShoulder			LElbow			LWrist		
		X1	Y1	Z1	X2	Y2	Z2	X3	Y3	Z3	X4	Y4	Z4	X5	Y5	Z5	X6	Y6	Z6	X7	Y7	Z7	X8	Y8	Z8	X9	Y9	Z9	X10	Y10	Z10	X11	Y11	Z11	X12	Y12	Z12	X13	Y13	Z13	X14	Y14	Z14	X15	Y15	Z15	X16	Y16	Z16	X17	Y17	Z17	X18	Y18	Z18	X19	Y19	Z19	X20	Y20	Z20	X21	Y21	Z21	X22	Y22	Z22
274	5.48	950.6557934600902	611.1575646533919	0.0	916.2149679801099	621.00263855673	0.0	886.1202053622395	746.7173078570514	0.0	866.1944766012118	858.8258685928297	0.0	865.1577848259732	894.680126665432	0.0	844.6474042241717	889.9249410997218	0.0	872.2220012117706	872.7190053633158	0.0	983.9092302496357	622.3214122383775	0.0	1003.1374802585314	747.2259488966565	0.0	1019.1692077792601	849.4294013093472	0.0	1034.587365429422	883.0020971662839	0.0	1046.5147777269178	876.3618272462812	0.0	1012.5549438584313	862.284757960743	0.0	949.0631372671469	431.26033270621036	0.0	940.2198019164061	346.10294556569096	0.0	936.3353022392167	397.81562395860766	0.0	900.976366868874	457.476573142786	0.0	874.5799900283592	536.7055754589041	0.0	903.329303264704	563.6759701248807	0.0	1003.9694238664491	453.4989821452614	0.0	1026.5081668128394	534.3109416206217	0.0	1005.9353206114573	578.8097903604298	0.0
275	5.5	950.6865004415661	610.6154920011267	0.0	916.3048488605771	620.4602822366626	0.0	885.8711702908298	746.5801496369505	0.0	865.9504490936308	858.6874826666399	0.0	864.8303129531184	894.8892318637743	0.0	844.3871479791139	889.9986326037683	0.0	872.1514922137782	872.7691870901056	0.0	983.9498564169614	621.8200918355004	0.0	1003.0827466972199	747.0088062288276	0.0	1019.0708722086343	849.2045016574905	0.0	1034.1382630600556	882.9261534915594	0.0	1046.1669168832325	876.442572315988	0.0	1012.6057994702106	862.1330807597537	0.0	948.9577418072273	431.48912289524213	0.0	940.3537106631534	346.3310555317939	0.0	936.6668442688958	397.6379657446812	0.0	901.0145762739983	457.4159434439082	0.0	874.3450199427735	536.7916302770294	0.0	903.7969322844433	563.8445679992459	0.0	1004.031117054649	453.2130420758213	0.0	1026.489061795384	534.5523917080725	0.0	1005.3323388833321	577.9593299540277	0.0
276	5.5200000000000005	950.6712443268609	609.8766795053169	0.0	916.4084259120821	619.7452576517356	0.0	885.6207045083905	746.2699502874874	0.0	865.7972384782763	858.5330918810101	0.0	864.5323928158182	895.0585907747923	0.0	844.1794487121276	890.1849218163964	0.0	872.0569970030645	872.770983955456	0.0	983.9269245251302	621.1648918017048	0.0	1002.9843690160034	746.6410862603277	0.0	1019.030667478222	848.9196941367585	0.0	1033.6765171132188	882.9561578687048	0.0	1045.8652296244695	876.5810855445607	0.0	1012.5941136409328	861.9658429635319	0.0	948.9280581597577	431.5717932251618	0.0	940.4202205111688	346.6047369596259	0.0	936.7131596982452	397.45761297437673	0.0	901.0744107640395	457.1987574738456	0.0	874.1086599879046	536.9041504282513	0.0	904.2567908108931	563.9128635797608	0.0	1004.0659119935469	452.9716467209529	0.0	1026.3917727412236	534.8093684406183	0.0	1004.6802230774852	577.0136159491389	0.0
277	5.54	950.5889443176397	609.2183339030049	0.0	916.4171035122581	619.1625328246661	0.0	885.4860089948291	746.0126962963603	0.0	865.7107517210758	858.5099077986716	0.0	864.4134895983582	895.1818873348184	0.0	844.1262233637556	890.4877461191679	0.0	871.9319287974583	872.8090630866345	0.0	983.8004641207402	620.5479878060142	0.0	1002.8662601744714	746.3921413736091	0.0	1019.000695711435	848.8018742912523	0.0	1033.3245012431673	882.9874122914183	0.0	1045.6532965661308	876.6419998273187	0.0	1012.461075103768	861.9612333200995	0.0	948.934745882257	431.537408361616	0.0	940.4296141805546	346.8247761554152	0.0	936.5277673773801	397.25361273059855	0.0	901.137613087413	456.9090188259073	0.0	873.9680169838243	537.0583982957241	0.0	904.7017482802314	563.8577941361615	0.0	1004.053693914182	452.88075549765966	0.0	1026.3284517204982	535.1067633277102	0.0	1003.8679255278685	576.0036131604403	0.0
278	5.5600000000000005	950.5050553219147	608.8852944720549	0.0	916.2804340571457	618.9105852796242	0.0	885.4612010298133	745.8903158738765	0.0	865.6750213251524	858.5320818515619	0.0	864.4095797895104	895.3084388359559	0.0	844.18295519495	890.7923258980566	0.0	871.8497987300434	872.8650625630795	0.0	983.6213776633915	620.152357902092	0.0	1002.758841817092	746.3733697736316	0.0	1018.9544261914882	848.9053566560129	0.0	1033.0798999898243	882.9567632229022	0.0	1045.4657388743747	876.5985234845739	0.0	1012.2699825782742	862.13034496113	0.0	949.0099268800388	431.459722225541	0.0	940.4255655644249	346.90737485068314	0.0	936.386327992367	397.0420983225504	0.0	901.1320427145068	456.69373071828153	0.0	873.9316417350633	537.1727828592476	0.0	905.1412772554527	563.7731767734477	0.0	1004.0340000613826	452.9374424190622	0.0	1026.3401575634894	535.4323563419666	0.0	1002.9933660068988	574.9687803506306	0.0
279	5.58	950.4956101561562	608.8518329243874	0.0	916.0572562795081	618.9064677635738	0.0	885.4458090523891	745.8258772985271	0.0	865.6881940640034	858.4818464367295	0.0	864.3650419752595	895.4137480292197	0.0	844.2523707773686	890.9683001647222	0.0	871.8581270338307	872.8762158201256	0.0	983.4634047819891	619.985760711554	0.0	1002.7188758611461	746.46683046372	0.0	1018.8573072592968	849.1110945189317	0.0	1032.9339456201685	882.9017390003489	0.0	1045.2736788742948	876.51515010463	0.0	1012.1011208567471	862.3501252159762	0.0	949.1608057507301	431.3716461386632	0.0	940.4221601511442	346.85626412828407	0.0	936.4404467737019	396.8387350009458	0.0	901.0320318290339	456.61820297378176	0.0	873.91146086182	537.1634312941519	0.0	905.6051100903045	563.7736093842389	0.0	1004.0357281554815	453.0602438620839	0.0	1026.4180335371711	535.690415594399	0.0	1002.1333193712964	573.9056190000614	0.0
280	5.6000000000000005	950.5909422326403	608.8615242843248	0.0	915.8764814717738	618.9209803403663	0.0	885.4218730447724	745.719615847555	0.0	865.7260200159456	858.4442625758168	0.0	864.2687685703265	895.3890475534539	0.0	844.3188470501206	890.9660436857588	0.0	871.8787260797113	872.8711535081908	0.0	983.3416762728089	619.9256599363797	0.0	1002.7621984882384	746.5026615822412	0.0	1018.681154600182	849.2844321762979	0.0	1032.9395026393759	882.8949911793832	0.0	1045.1586876738838	876.426590543189	0.0	1011.9244851480188	862.5198344454757	0.0	949.3172867218562	431.26424835409216	0.0	940.4207644371265	346.765531829605	0.0	936.5700200145916	396.65534926133137	0.0	900.9010778250419	456.63835052378397	0.0	873.8707806320393	537.110198665665	0.0	906.1520734797937	563.8701467302008	0.0	1004.0540632196397	453.1725819292521	0.0	1026.5385137884161	535.8042280530435	0.0	1001.2137964196247	572.7705934193241	0.0
281	5.62	950.7749075640733	608.7456258291877	0.0	915.8329235305836	618.8224152148259	0.0	885.4298367119163	745.5100006356057	0.0	865.7618994973396	858.4904893982937	0.0	864.199595370527	895.226162426875	0.0	844.4093043843235	890.8260379661988	0.0	871.8075371915118	872.8704441245189	0.0	983.2415688755926	619.8912998804446	0.0	1002.8326917766153	746.4010818643274	0.0	1018.4634785968362	849.298081790995	0.0	1033.078977427794	882.9690358631606	0.0	1045.1595268511026	876.3413352736479	0.0	1011.6676862683021	862.5381947125929	0.0	949.4133485484101	431.1577561796673	0.0	940.4632098031126	346.7047558176399	0.0	936.6326610882207	396.52181213627273	0.0	900.8239056658898	456.686471505248	0.0	873.8462259038066	537.176905546999	0.0	906.8513666334525	564.0070725065028	0.0	1004.0946383712449	453.2490005562483	0.0	1026.6414826857836	535.8591160456491	0.0	1000.2201343394224	571.6504333868695	0.0
282	5.64	950.9851958328585	608.5573218934002	0.0	915.9219291458558	618.6149573757806	0.0	885.4399491858981	745.1889167222027	0.0	865.7880651175088	858.4818852553307	0.0	864.1233834927175	895.0442120037027	0.0	844.4984529740218	890.6244487868605	0.0	871.6688212365852	872.7915020266556	0.0	983.1905323335192	619.8679520962922	0.0	1002.8582388081307	746.1840811462099	0.0	1018.3001055497504	849.0821883637686	0.0	1033.2135965968255	883.1131043022656	0.0	1045.191564507647	876.3305381867016	0.0	1011.3658372353367	862.3251923402767	0.0	949.4530119321287	431.1056142867101	0.0	940.5776288440429	346.65728722956254	0.0	936.6667030809149	396.4473990418293	0.0	900.8407385554267	456.71352084771337	0.0	873.8588053713629	537.3765943109508	0.0	907.6837214279584	564.1374240199294	0.0	1004.1545275381062	453.29827356128845	0.0	1026.6399114150738	535.9849779184149	0.0	999.2929275235646	570.8076818235431	0.0
283	5.66	951.1420220607445	608.3405784645201	0.0	916.0672334177394	618.3063098122346	0.0	885.395858426337	744.8274289918062	0.0	865.7882485294247	858.3078189772822	0.0	863.9651966007843	894.9332205308426	0.0	844.5419004091896	890.4164626969766	0.0	871.556171424586	872.6017686505929	0.0	983.2138576954408	619.7863740439016	0.0	1002.7962561764564	745.9466881320675	0.0	1018.2500140195555	848.7664596844187	0.0	1033.2520883607567	883.2965061561977	0.0	1045.17228103092	876.4955354414554	0.0	1011.1117429603839	861.9992594610919	0.0	949.479204013513	431.12387042469067	0.0	940.7155262082405	346.59122311954167	0.0	936.7440016824903	396.41214125936295	0.0	900.9510924977053	456.6880132709149	0.0	873.9187739004072	537.5535468006266	0.0	908.4794380274099	564.2045195034508	0.0	1004.178878727909	453.3534754536779	0.0	1026.5314684187067	536.1518204364276	0.0	998.499118389267	570.4039212562122	0.0
